<mxfile host="app.diagrams.net" modified="2023-03-28T07:54:39.573Z" agent="Mozilla/5.0 (Macintosh; Intel Mac OS X 10_15_7) AppleWebKit/537.36 (KHTML, like Gecko) Chrome/111.0.0.0 Safari/537.36" etag="vDjV_aidN3gdVNw59e9n" version="21.1.1" type="device">
  <diagram id="C5RBs43oDa-KdzZeNtuy" name="Page-1">
    <mxGraphModel dx="954" dy="648" grid="1" gridSize="10" guides="1" tooltips="1" connect="1" arrows="1" fold="1" page="1" pageScale="1" pageWidth="827" pageHeight="1169" math="0" shadow="0">
      <root>
        <mxCell id="WIyWlLk6GJQsqaUBKTNV-0" />
        <mxCell id="WIyWlLk6GJQsqaUBKTNV-1" parent="WIyWlLk6GJQsqaUBKTNV-0" />
        <mxCell id="y5GBzKAO8TMJgr05Nvq9-48" value="" style="edgeStyle=orthogonalEdgeStyle;rounded=0;orthogonalLoop=1;jettySize=auto;html=1;" edge="1" parent="WIyWlLk6GJQsqaUBKTNV-1" source="y5GBzKAO8TMJgr05Nvq9-16" target="y5GBzKAO8TMJgr05Nvq9-46">
          <mxGeometry relative="1" as="geometry" />
        </mxCell>
        <mxCell id="y5GBzKAO8TMJgr05Nvq9-16" value="&lt;div style=&quot;&quot;&gt;&lt;b&gt;&lt;font style=&quot;font-size: 14px;&quot;&gt;Residual Block&lt;/font&gt;&lt;/b&gt;&lt;/div&gt;" style="rounded=1;whiteSpace=wrap;html=1;fontSize=12;glass=0;strokeWidth=1;shadow=0;fillColor=#f5f5f5;strokeColor=#666666;align=center;verticalAlign=top;rotation=0;flipV=0;fontColor=#333333;" vertex="1" parent="WIyWlLk6GJQsqaUBKTNV-1">
          <mxGeometry x="225" y="170" width="170" height="270" as="geometry" />
        </mxCell>
        <mxCell id="y5GBzKAO8TMJgr05Nvq9-17" style="edgeStyle=orthogonalEdgeStyle;rounded=0;orthogonalLoop=1;jettySize=auto;html=1;exitX=0.5;exitY=1;exitDx=0;exitDy=0;endArrow=none;endFill=0;strokeWidth=2;" edge="1" parent="WIyWlLk6GJQsqaUBKTNV-1" source="y5GBzKAO8TMJgr05Nvq9-18">
          <mxGeometry relative="1" as="geometry">
            <mxPoint x="309" y="146" as="targetPoint" />
          </mxGeometry>
        </mxCell>
        <mxCell id="y5GBzKAO8TMJgr05Nvq9-19" style="edgeStyle=orthogonalEdgeStyle;rounded=0;orthogonalLoop=1;jettySize=auto;html=1;exitX=0.5;exitY=1;exitDx=0;exitDy=0;entryX=0.5;entryY=0;entryDx=0;entryDy=0;endArrow=none;endFill=0;strokeWidth=2;" edge="1" parent="WIyWlLk6GJQsqaUBKTNV-1" source="y5GBzKAO8TMJgr05Nvq9-20">
          <mxGeometry relative="1" as="geometry">
            <mxPoint x="310" y="176" as="targetPoint" />
          </mxGeometry>
        </mxCell>
        <mxCell id="y5GBzKAO8TMJgr05Nvq9-32" style="edgeStyle=orthogonalEdgeStyle;rounded=0;orthogonalLoop=1;jettySize=auto;html=1;exitX=0.5;exitY=1;exitDx=0;exitDy=0;entryX=0.5;entryY=0;entryDx=0;entryDy=0;strokeWidth=2;endArrow=none;endFill=0;" edge="1" parent="WIyWlLk6GJQsqaUBKTNV-1" source="y5GBzKAO8TMJgr05Nvq9-24" target="y5GBzKAO8TMJgr05Nvq9-26">
          <mxGeometry relative="1" as="geometry" />
        </mxCell>
        <mxCell id="y5GBzKAO8TMJgr05Nvq9-24" value="Batch-Norm" style="rounded=1;whiteSpace=wrap;html=1;fillColor=#dae8fc;strokeColor=#6c8ebf;" vertex="1" parent="WIyWlLk6GJQsqaUBKTNV-1">
          <mxGeometry x="269" y="235" width="80" height="20" as="geometry" />
        </mxCell>
        <mxCell id="y5GBzKAO8TMJgr05Nvq9-25" style="edgeStyle=orthogonalEdgeStyle;rounded=0;orthogonalLoop=1;jettySize=auto;html=1;exitX=0.5;exitY=1;exitDx=0;exitDy=0;entryX=0.5;entryY=0;entryDx=0;entryDy=0;endArrow=block;endFill=1;strokeWidth=2;" edge="1" parent="WIyWlLk6GJQsqaUBKTNV-1" source="y5GBzKAO8TMJgr05Nvq9-26">
          <mxGeometry relative="1" as="geometry">
            <mxPoint x="310" y="313" as="targetPoint" />
          </mxGeometry>
        </mxCell>
        <mxCell id="y5GBzKAO8TMJgr05Nvq9-26" value="ReLU" style="rounded=1;whiteSpace=wrap;html=1;fillColor=#d5e8d4;strokeColor=#82b366;" vertex="1" parent="WIyWlLk6GJQsqaUBKTNV-1">
          <mxGeometry x="269" y="263" width="80" height="20" as="geometry" />
        </mxCell>
        <mxCell id="y5GBzKAO8TMJgr05Nvq9-30" style="edgeStyle=orthogonalEdgeStyle;rounded=0;orthogonalLoop=1;jettySize=auto;html=1;exitX=0.5;exitY=1;exitDx=0;exitDy=0;entryX=0.5;entryY=0;entryDx=0;entryDy=0;strokeWidth=2;endArrow=none;endFill=0;" edge="1" parent="WIyWlLk6GJQsqaUBKTNV-1" source="y5GBzKAO8TMJgr05Nvq9-31" target="y5GBzKAO8TMJgr05Nvq9-24">
          <mxGeometry relative="1" as="geometry" />
        </mxCell>
        <mxCell id="y5GBzKAO8TMJgr05Nvq9-31" value="Weight Layer" style="rounded=1;whiteSpace=wrap;html=1;fillColor=#fad7ac;strokeColor=#b46504;" vertex="1" parent="WIyWlLk6GJQsqaUBKTNV-1">
          <mxGeometry x="250" y="206" width="120" height="20" as="geometry" />
        </mxCell>
        <mxCell id="y5GBzKAO8TMJgr05Nvq9-33" value="Batch-Norm" style="rounded=1;whiteSpace=wrap;html=1;fillColor=#dae8fc;strokeColor=#6c8ebf;" vertex="1" parent="WIyWlLk6GJQsqaUBKTNV-1">
          <mxGeometry x="269" y="397" width="80" height="20" as="geometry" />
        </mxCell>
        <mxCell id="y5GBzKAO8TMJgr05Nvq9-37" style="edgeStyle=orthogonalEdgeStyle;rounded=0;orthogonalLoop=1;jettySize=auto;html=1;exitX=0.5;exitY=1;exitDx=0;exitDy=0;entryX=0.5;entryY=0;entryDx=0;entryDy=0;strokeWidth=2;endArrow=none;endFill=0;" edge="1" parent="WIyWlLk6GJQsqaUBKTNV-1" source="y5GBzKAO8TMJgr05Nvq9-36" target="y5GBzKAO8TMJgr05Nvq9-33">
          <mxGeometry relative="1" as="geometry" />
        </mxCell>
        <mxCell id="y5GBzKAO8TMJgr05Nvq9-36" value="Weight Layer" style="rounded=1;whiteSpace=wrap;html=1;fillColor=#fad7ac;strokeColor=#b46504;" vertex="1" parent="WIyWlLk6GJQsqaUBKTNV-1">
          <mxGeometry x="250" y="368" width="120" height="20" as="geometry" />
        </mxCell>
        <mxCell id="y5GBzKAO8TMJgr05Nvq9-39" style="edgeStyle=orthogonalEdgeStyle;rounded=0;orthogonalLoop=1;jettySize=auto;html=1;exitX=0.5;exitY=1;exitDx=0;exitDy=0;entryX=0.5;entryY=0;entryDx=0;entryDy=0;endArrow=block;endFill=1;strokeWidth=2;" edge="1" parent="WIyWlLk6GJQsqaUBKTNV-1">
          <mxGeometry relative="1" as="geometry">
            <mxPoint x="309" y="338" as="sourcePoint" />
            <mxPoint x="310" y="368" as="targetPoint" />
          </mxGeometry>
        </mxCell>
        <mxCell id="y5GBzKAO8TMJgr05Nvq9-40" value="&lt;b style=&quot;font-size: 14px;&quot;&gt;...&lt;/b&gt;" style="text;html=1;strokeColor=none;fillColor=none;align=center;verticalAlign=middle;whiteSpace=wrap;rounded=0;rotation=90;" vertex="1" parent="WIyWlLk6GJQsqaUBKTNV-1">
          <mxGeometry x="284" y="309" width="60" height="30" as="geometry" />
        </mxCell>
        <mxCell id="y5GBzKAO8TMJgr05Nvq9-42" value="" style="endArrow=block;html=1;rounded=0;entryX=0.5;entryY=0;entryDx=0;entryDy=0;strokeWidth=2;endFill=1;" edge="1" parent="WIyWlLk6GJQsqaUBKTNV-1" target="y5GBzKAO8TMJgr05Nvq9-16">
          <mxGeometry width="50" height="50" relative="1" as="geometry">
            <mxPoint x="310" y="60" as="sourcePoint" />
            <mxPoint x="334" y="70" as="targetPoint" />
          </mxGeometry>
        </mxCell>
        <mxCell id="y5GBzKAO8TMJgr05Nvq9-44" value="" style="endArrow=block;html=1;rounded=0;strokeWidth=2;endFill=1;" edge="1" parent="WIyWlLk6GJQsqaUBKTNV-1">
          <mxGeometry width="50" height="50" relative="1" as="geometry">
            <mxPoint x="310" y="120" as="sourcePoint" />
            <mxPoint x="320" y="500" as="targetPoint" />
            <Array as="points">
              <mxPoint x="450" y="120" />
              <mxPoint x="450" y="500" />
            </Array>
          </mxGeometry>
        </mxCell>
        <mxCell id="y5GBzKAO8TMJgr05Nvq9-45" value="" style="endArrow=block;html=1;rounded=0;strokeWidth=2;endFill=1;exitX=0.5;exitY=1;exitDx=0;exitDy=0;" edge="1" parent="WIyWlLk6GJQsqaUBKTNV-1" source="y5GBzKAO8TMJgr05Nvq9-16">
          <mxGeometry width="50" height="50" relative="1" as="geometry">
            <mxPoint x="309.5" y="460" as="sourcePoint" />
            <mxPoint x="310" y="490" as="targetPoint" />
          </mxGeometry>
        </mxCell>
        <mxCell id="y5GBzKAO8TMJgr05Nvq9-46" value="&lt;b style=&quot;&quot;&gt;&lt;font style=&quot;font-size: 21px;&quot;&gt;+&lt;/font&gt;&lt;/b&gt;" style="ellipse;whiteSpace=wrap;html=1;aspect=fixed;" vertex="1" parent="WIyWlLk6GJQsqaUBKTNV-1">
          <mxGeometry x="299" y="490" width="20" height="20" as="geometry" />
        </mxCell>
        <mxCell id="y5GBzKAO8TMJgr05Nvq9-47" value="" style="endArrow=block;html=1;rounded=0;strokeWidth=2;endFill=1;" edge="1" parent="WIyWlLk6GJQsqaUBKTNV-1">
          <mxGeometry width="50" height="50" relative="1" as="geometry">
            <mxPoint x="309.5" y="510" as="sourcePoint" />
            <mxPoint x="310" y="540" as="targetPoint" />
          </mxGeometry>
        </mxCell>
        <mxCell id="y5GBzKAO8TMJgr05Nvq9-49" value="ReLU" style="rounded=1;whiteSpace=wrap;html=1;fillColor=#d5e8d4;strokeColor=#82b366;" vertex="1" parent="WIyWlLk6GJQsqaUBKTNV-1">
          <mxGeometry x="270" y="540" width="80" height="20" as="geometry" />
        </mxCell>
        <mxCell id="y5GBzKAO8TMJgr05Nvq9-51" value="" style="endArrow=block;html=1;rounded=0;strokeWidth=2;endFill=1;" edge="1" parent="WIyWlLk6GJQsqaUBKTNV-1">
          <mxGeometry width="50" height="50" relative="1" as="geometry">
            <mxPoint x="309.5" y="560" as="sourcePoint" />
            <mxPoint x="310" y="600" as="targetPoint" />
          </mxGeometry>
        </mxCell>
        <mxCell id="y5GBzKAO8TMJgr05Nvq9-52" value="" style="shape=image;verticalLabelPosition=bottom;labelBackgroundColor=default;verticalAlign=top;aspect=fixed;imageAspect=0;image=data:image/png,iVBORw0KGgoAAAANSUhEUgAAAGYAAABeCAYAAADR9mGiAAAMP2lDQ1BJQ0MgUHJvZmlsZQAASImVVwdYU8kWnluSkEBoAQSkhN4E6QSQEkILIL0INkISIJQYA0HFji4quHYRARu6KqLYAbEjdhbB3hcLAsq6WLArb1JA133le/N9c+e//5z5z5kzc8sAoHaKIxLloOoA5ArzxbEhAfRxySl0UjdAARXoAH1gzeHmiZjR0REAlqH27+XdTYBI22v2Uq1/9v/XosHj53EBQKIhTuPlcXMhPgQAXsUVifMBIEp5s2n5IimGFWiJYYAQL5biDDmukuI0Od4ns4mPZUHcAoCSCocjzgBAtR3y9AJuBtRQ7YfYUcgTCAFQo0Psm5s7hQdxKsTW0EYEsVSfkfaDTsbfNNOGNTmcjGEsn4usKAUK8kQ5nBn/Zzr+d8nNkQz5sIRVJVMcGiudM8zb7ewp4VKsAnGfMC0yCmJNiD8IeDJ7iFFKpiQ0QW6PGnDzWDBncJ0B6sjjBIZDbABxsDAnMkLBp6ULgtkQwx2CThfks+Mh1oV4MT8vKE5hs1k8JVbhC61PF7OYCv4CRyzzK/X1UJKdwFTov87ksxX6mGphZnwSxBSIzQsEiZEQq0LskJcdF66wGVOYyYocshFLYqXxm0McyxeGBMj1sYJ0cXCswr4kN29ovtjmTAE7UoEP5GfGh8rzg7VwObL44Vywdr6QmTCkw88bFzE0Fx4/MEg+d6yHL0yIU+h8EOUHxMrH4hRRTrTCHjfl54RIeVOIXfMK4hRj8cR8uCHl+ni6KD86Xh4nXpjFCYuWx4OvABGABQIBHUhgTQNTQBYQtPU19ME7eU8w4AAxyAB8YK9ghkYkyXqE8BoHCsGfEPFB3vC4AFkvHxRA/uswK7/ag3RZb4FsRDZ4BnEuCAc58F4iGyUc9pYInkJG8A/vHFi5MN4cWKX9/54fYr8zTMhEKBjJkEe62pAlMYgYSAwlBhNtcH3cF/fGI+DVH1ZnnIF7Ds3juz3hGaGD8Jhwg9BJuDNZUCT+KcqxoBPqBytykfZjLnBLqOmGB+A+UB0q4zq4PrDHXaEfJu4HPbtBlqWIW5oV+k/af5vBD6uhsCM7klHyCLI/2frnkaq2qm7DKtJc/5gfeaxpw/lmDff87J/1Q/Z5sA3/2RJbjB3EzmOnsYvYMawB0LGTWCPWih2X4uHd9VS2u4a8xcriyYY6gn/4G1pZaSbzHGsdex2/yPvy+dOl72jAmiKaIRZkZObTmfCLwKezhVyHUXRnR2cXAKTfF/nr602M7LuB6LR+5xb8AYDPycHBwaPfubCTAOz3gI//ke+cNQN+OpQBuHCEKxEXyDlceiHAt4QafNL0gBEwA9ZwPs7AHXgDfxAEwkAUiAfJYBKMPhPuczGYBmaB+aAYlIIVYC2oAJvAVrAT7AEHQAM4Bk6Dc+AyaAc3wD24e7rAC9AP3oHPCIKQECpCQ/QQY8QCsUOcEQbiiwQhEUgskoykIhmIEJEgs5AFSCmyCqlAtiA1yH7kCHIauYh0IHeQR0gv8hr5hGKoCqqFGqKW6GiUgTLRcDQenYhmoFPRQnQhugwtR6vR3Wg9ehq9jN5AO9EX6AAGMGVMBzPB7DEGxsKisBQsHRNjc7ASrAyrxuqwJrjO17BOrA/7iBNxGk7H7eEODsUTcC4+FZ+DL8Ur8J14Pd6CX8Mf4f34NwKVYECwI3gR2IRxhAzCNEIxoYywnXCYcBY+S12Ed0QiUYdoRfSAz2IyMYs4k7iUuIG4l3iK2EF8QhwgkUh6JDuSDymKxCHlk4pJ60m7SSdJV0ldpA9KykrGSs5KwUopSkKlIqUypV1KJ5SuKnUrfSarky3IXuQoMo88g7ycvI3cRL5C7iJ/pmhQrCg+lHhKFmU+pZxSRzlLuU95o6ysbKrsqRyjLFCep1yuvE/5gvIj5Y8qmiq2KiyVCSoSlWUqO1ROqdxReUOlUi2p/tQUaj51GbWGeob6kPpBlabqoMpW5anOVa1UrVe9qvpSjaxmocZUm6RWqFamdlDtilqfOlndUp2lzlGfo16pfkT9lvqABk3DSSNKI1djqcYujYsaPZokTUvNIE2e5kLNrZpnNJ/QMJoZjUXj0hbQttHO0rq0iFpWWmytLK1SrT1abVr92prartqJ2tO1K7WPa3fqYDqWOmydHJ3lOgd0bup8GmE4gjmCP2LJiLoRV0e81x2p66/L1y3R3at7Q/eTHl0vSC9bb6Veg94DfVzfVj9Gf5r+Rv2z+n0jtUZ6j+SOLBl5YORdA9TA1iDWYKbBVoNWgwFDI8MQQ5HhesMzhn1GOkb+RllGa4xOGPUa04x9jQXGa4xPGj+na9OZ9Bx6Ob2F3m9iYBJqIjHZYtJm8tnUyjTBtMh0r+kDM4oZwyzdbI1Zs1m/ubH5WPNZ5rXmdy3IFgyLTIt1Fuct3ltaWSZZLrJssOyx0rViWxVa1Vrdt6Za+1lPta62vm5DtGHYZNtssGm3RW3dbDNtK22v2KF27nYCuw12HaMIozxHCUdVj7plr2LPtC+wr7V/5KDjEOFQ5NDg8HK0+eiU0StHnx/9zdHNMcdxm+M9J02nMKcipyan1862zlznSufrLlSXYJe5Lo0ur1ztXPmuG11vu9Hcxrotcmt2++ru4S52r3Pv9TD3SPWo8rjF0GJEM5YyLngSPAM853oe8/zo5e6V73XA6y9ve+9s713ePWOsxvDHbBvzxMfUh+OzxafTl+6b6rvZt9PPxI/jV+332N/Mn+e/3b+bacPMYu5mvgxwDBAHHA54z/JizWadCsQCQwJLAtuCNIMSgiqCHgabBmcE1wb3h7iFzAw5FUoIDQ9dGXqLbcjmsmvY/WEeYbPDWsJVwuPCK8IfR9hGiCOaxqJjw8auHns/0iJSGNkQBaLYUaujHkRbRU+NPhpDjImOqYx5FusUOyv2fBwtbnLcrrh38QHxy+PvJVgnSBKaE9USJyTWJL5PCkxaldQ5bvS42eMuJ+snC5IbU0gpiSnbUwbGB41fO75rgtuE4gk3J1pNnD7x4iT9STmTjk9Wm8yZfDCVkJqUuiv1CyeKU80ZSGOnVaX1c1ncddwXPH/eGl4v34e/it+d7pO+Kr0nwydjdUZvpl9mWWafgCWoELzKCs3alPU+Oyp7R/ZgTlLO3lyl3NTcI0JNYbawZYrRlOlTOkR2omJR51SvqWun9ovDxdvzkLyJeY35WvBHvlViLflF8qjAt6Cy4MO0xGkHp2tMF05vnWE7Y8mM7sLgwt9m4jO5M5tnmcyaP+vRbObsLXOQOWlzmueazV04t2teyLyd8ynzs+f/XuRYtKro7YKkBU0LDRfOW/jkl5BfaotVi8XFtxZ5L9q0GF8sWNy2xGXJ+iXfSngll0odS8tKvyzlLr30q9Ov5b8OLktf1rbcffnGFcQVwhU3V/qt3LlKY1Xhqierx66uX0NfU7Lm7drJay+WuZZtWkdZJ1nXWR5R3rjefP2K9V8qMituVAZU7q0yqFpS9X4Db8PVjf4b6zYZbird9GmzYPPtLSFb6qstq8u2ErcWbH22LXHb+d8Yv9Vs199euv3rDuGOzp2xO1tqPGpqdhnsWl6L1kpqe3dP2N2+J3BPY5193Za9OntL94F9kn3P96fuv3kg/EDzQcbBukMWh6oO0w6X1CP1M+r7GzIbOhuTGzuOhB1pbvJuOnzU4eiOYybHKo9rH19+gnJi4YnBk4UnB06JTvWdzjj9pHly870z485cb4lpaTsbfvbCueBzZ84zz5+84HPh2EWvi0cuMS41XHa/XN/q1nr4d7ffD7e5t9Vf8bjS2O7Z3tQxpuPEVb+rp68FXjt3nX398o3IGx03E27evjXhVudt3u2eOzl3Xt0tuPv53rz7hPslD9QflD00eFj9h80fezvdO48/CnzU+jju8b0n3CcvnuY9/dK18Bn1WVm3cXdNj3PPsd7g3vbn4593vRC9+NxX/KfGn1UvrV8e+sv/r9b+cf1dr8SvBl8vfaP3Zsdb17fNA9EDD9/lvvv8vuSD3oedHxkfz39K+tT9edoX0pfyrzZfm76Ff7s/mDs4KOKIObJfAQxWND0dgNc7AKAmA0CD5zPKePn5T1YQ+ZlVhsB/wvIzoqy4A1AH/99j+uDfzS0A9m2Dxy+orzYBgGgqAPGeAHVxGa5DZzXZuVJaiPAcsJn9NS03DfybIj9z/hD3zy2QqrqCn9t/AbrmfGqPnG8uAAAAimVYSWZNTQAqAAAACAAEARoABQAAAAEAAAA+ARsABQAAAAEAAABGASgAAwAAAAEAAgAAh2kABAAAAAEAAABOAAAAAAAAAJAAAAABAAAAkAAAAAEAA5KGAAcAAAASAAAAeKACAAQAAAABAAAAZqADAAQAAAABAAAAXgAAAABBU0NJSQAAAFNjcmVlbnNob3SDHpMaAAAACXBIWXMAABYlAAAWJQFJUiTwAAAB1WlUWHRYTUw6Y29tLmFkb2JlLnhtcAAAAAAAPHg6eG1wbWV0YSB4bWxuczp4PSJhZG9iZTpuczptZXRhLyIgeDp4bXB0az0iWE1QIENvcmUgNi4wLjAiPgogICA8cmRmOlJERiB4bWxuczpyZGY9Imh0dHA6Ly93d3cudzMub3JnLzE5OTkvMDIvMjItcmRmLXN5bnRheC1ucyMiPgogICAgICA8cmRmOkRlc2NyaXB0aW9uIHJkZjphYm91dD0iIgogICAgICAgICAgICB4bWxuczpleGlmPSJodHRwOi8vbnMuYWRvYmUuY29tL2V4aWYvMS4wLyI+CiAgICAgICAgIDxleGlmOlBpeGVsWURpbWVuc2lvbj45NDwvZXhpZjpQaXhlbFlEaW1lbnNpb24+CiAgICAgICAgIDxleGlmOlBpeGVsWERpbWVuc2lvbj4xMDI8L2V4aWY6UGl4ZWxYRGltZW5zaW9uPgogICAgICAgICA8ZXhpZjpVc2VyQ29tbWVudD5TY3JlZW5zaG90PC9leGlmOlVzZXJDb21tZW50PgogICAgICA8L3JkZjpEZXNjcmlwdGlvbj4KICAgPC9yZGY6UkRGPgo8L3g6eG1wbWV0YT4KBfB3CQAAABxpRE9UAAAAAgAAAAAAAAAvAAAAKAAAAC8AAAAvAAAF/ASJCe8AAAXISURBVHgB7FpbKGZfFD9mhFyjmFziCZFL7hJJRhTlZVxKuTyQUjxJSZ4opJQ7RYaUKeQegzfxIJ6oGUVuYVDmgcED+3/W6b93+/ucwz7HidNxVn3t79uXtdb5/c7ea397bQvEC2eI5hCwMIjRHCeCQwYx2uSFM4gxiNEoAhp1y5gxBjEaRUCjbhkzxiBGowho1C1jxhjEaBQBjbplzBiDGI0ioFG3jBljEKNRBDTqljFjNEoMB8f+H0Wurq5QQUEBSkxMVO2RKysr0devX9H29rZqOkHRhyFmf38f+fn5QVIQxcfHqwZiVVWVoNPBwQEtLi6qpvdDLGVHR0dcQkICd3BwIJRzc3Ocvb295CJ2enrKnZyccBcXF9zl5aXw+ffvH1dcXMy5urqajHt8fOSys7O5sbExzsrKipuZmeFSUlJM+ij6oRrFGlV0fX2NQkNDhbc6MDAQ/f3791lPk5KShL48mE/KkZER0bF3d3cIj7Ozs0MbGxui/eRU6nope3h4QJmZmQLAANjOzs6L2JSUlKCAgADEz4wnxOzt7UmOh/jl5eUljPH390c3NzeSfVkadE1Ma2srAbezs5MFD9KHX6KQra0tGe/t7U3apL78/PkTWVhYCGPKysqkujHV65YYPp4gPo4IIIWFhSEAWo78+vWLkALLWn5+PtPwwsJCMm5+fp5pjFgn3RKTk5NDAFKyW+ru7ibjgZj+/n4x/J7UwbYZzxoPDw8E8UeJ6JKY4+NjZGlpKQAbGRmpBBeUm5trQsxz8cXcQGpqKhnb19dn3sz0W5fE1NTUvBoYd3d3ooMlvtBowxKGd3UhISF0E/N33RFzf3+P3NzcBGAgxijZHSmNLxh1iGewNcfkLC8v4ybmUnfEDA0NEUBgq6xElMYX2lZLSwvxA46B5IruiElLSyOAdHV1ycVD6P+a+IINrq+vEz++fPkie1eoKjGwbJyfn6OzszPs35uWsIQ4OzsTQOQEbNrR18QXrAeWVGtra+LL5uYmbmIqmYlpb29H3759Q/BG8udOCP4b+Pr6IngIOMD79OkTcSImJobJuNqdfv/+TXxwcnJSpP618YU2GhsbS/xpaGigm178zkxMVlYWMYKDmlT5XsQMDg4SHwEUJaJGfMF2y8vLiT95eXm4mqnUFTFwDIJflqKiIiYAzDupEV+wzu/fvxN/5P6fYiYG9uYZGRmIP9JGnp6exCAGgi7fa8akp6cTv+rq6jA+sko14gs2yKcXiD+Ojo64mqlkJsZc23NL23sRExcXR4Boa2szd/nF32rGFzC2urpK/IEXV85/KsXE9Pb2mhjVwoyh/9QNDAy8SIR5BzXjC+iGczMalz9//piblPytmBhIGtFG6e/vNWPoZWh8fFzyoaUa1IwvYAPO7Ghcdnd3pUw/qVdMzI8fP0yM0g68FzEuLi7Ep6mpqScP+1IFTazc8zEx3XxamvgDJ858ulqsm2idroiBzCN+QYaHh0UfWKpS7fgCdg4PD4k/4NeHJQauEWFiOjo6pDgQrVc7voCRra0t4g/4dXt7K2pbrFJXMwYOCzEx9fX1Ys8rWad2fAFDa2trxB8bGxtJ22INuiKmurqaAAEX8eTIc/EFLgjC8ZNcgTiHXxTIZsoRXREDyxcGgr/rxYwD3J7B46Ck8/v8nTShDeKXXGlqaiJ6IaspR3RFzMTEBAHCx8eHGQfYWtPE0OlgSB1AW0VFBbM+3JG+mFFbW4urmUpdEQPH/DTArOmH0dFRk3GQS8ECJ+mgc2VlBVcxl9HR0UTv7Ows8zjo+KbEwJWinp4eYamAM7fw8HAEh3vJyckIbrU0NjYiGhRZT/J/56ioKALG5OQkkwrYxtKELiwsCOOWlpaE+uDgYCY9dCe4AUrnY+A/jRx5E2IgeVZaWoo+f/5sAgANBv0d8j5wCVyJNDc3ExuwGWAVeDmwDxEREQjyJ5B0gzwTECRXpqenib6goCC5w9F/AAAA//9Z1xWhAAAES0lEQVTtWksodkEYns8l5JbLxmWhrGQhJFmykCiR2JCtJBtla8NCVkQ2ckk2yGVjR3IpJSkLJdm4b0guKdf3n3dqpvN/Psz5zjea3/9Onc7MmXee95n3+Wa+OWeGQZBpenoaGGMBr+LiYoU6NDQEiYmJH+zCw8PB5/N9eC4xo6OjYXR0VOHoZo6PjxVuUVGRbjO4v7+HyspKCAsLU5ww39vbq43hNGxra1M4GAO3ibltIO11hOnp6VHkMOCFhYUwNjYGe3t78PLyAnd3d9DR0fGXjRQG73FxcXBxcSFdat9LSkoU5tbWlnY7NLy+voa5uTkYHx+Hg4MDV22lMfYtLS1NcIiPjxf9lHW6d2PCDAwMqODExMRAX18fvL6+BuRVXV2tbJ3CYL65uTlgm68e9vf3K7yGhoavTI3Uzc7OKv/t7e1B+TAiTEJCAkRGRgpyqampcHh4+CW5xcVF1RF/YXC6Oz8//7K9f+Xt7S1kZGQIzIiICDg5OfE3MVouLS0VvpF7sKPOiDDO4OK08F3CKc3Zxj+/trb2HcSH+vn5eYXZ2dn5od7Ug+XlZeW3rq4uaDdGhWlqatImhn/2/oLI8sTEhDaO07C2tlZg4uLD7ahz4ujm397eoKCgICQ+jQmTlJQENzc3un2CzMzMT4Xp6urSxnEanp2dAU6rKHBFRYWzykge/0flj2lkZMSTD2PCNDY2uiKWk5OjOiU7J+8tLS2usJzGw8PDCndwcNBZFdL8zs4OREVFCV9e+EpSxoSZmpqSPrTupoRB53LZju9OCwsLWnzcGOHiIj09XYhSVlYmXgXctA9ka0yYzc3NQP4+fWZSGHSKL3m4SsJf9erq6qc83Facnp5Cdna2EAVfrHFFGIpkTJijoyNX/EwLg2RwFOPyGf93QpVqamqEKFVVVeLrQahwjQlzeXnpiuNPCIOEtre3Ab9ahCptbGzAzMwM4IoslOm/EyaUwTOJRcKYjK4HbBLGQ/BMNiVhTEbXAzYJ4yF4JpuSMCaj6wGbhPEQPJNNSRiT0fWATcJ4CJ7JpiSMyeh6wCZhPATPZFMfgvN9j2/T7u4u49+/lN36+jrjG0Oq7J+ZnJxkycnJ6nFubi7LysoS5YeHB8a3i1UdZlpbWxn/UvvXM1nIz89n3d3dssj4eQJWXl6uyr8yo6t6fX29+IrKgxDU3blJtb+/HxSG9J2SkqJL+5+1057KSJif1Vh7KuO7gGI6iY2NFVMJTif8pCLjm0/iktMJp8/e39/FxQ++sefnZ/b09MSWlpYY390TZldXVywvL4/x0zGMH8JgfI9EXBJPYuFdYvEzaQyvx8dHxg/0sZWVFafZr8trC/Prem55h0gYSwUiYUgYSyNgKS0aMSSMpRGwlBaNGBLG0ghYSotGDAljaQQspUUjhoSxNAKW0qIRQ8JYGgFLadGIIWEsjYCltGjEkDCWRsBSWjRiSBhLI2AprT/Fxy//xuuLDwAAAABJRU5ErkJggg==;" vertex="1" parent="WIyWlLk6GJQsqaUBKTNV-1">
          <mxGeometry x="250" y="60" width="51" height="47" as="geometry" />
        </mxCell>
        <mxCell id="y5GBzKAO8TMJgr05Nvq9-53" value="" style="shape=image;verticalLabelPosition=bottom;labelBackgroundColor=default;verticalAlign=top;aspect=fixed;imageAspect=0;image=data:image/png,iVBORw0KGgoAAAANSUhEUgAAANAAAABeCAYAAABSHprcAAAMP2lDQ1BJQ0MgUHJvZmlsZQAASImVVwdYU8kWnluSkEBoAQSkhN4E6QSQEkILIL0INkISIJQYA0HFji4quHYRARu6KqLYAbEjdhbB3hcLAsq6WLArb1JA133le/N9c+e//5z5z5kzc8sAoHaKIxLloOoA5ArzxbEhAfRxySl0UjdAARXoAH1gzeHmiZjR0REAlqH27+XdTYBI22v2Uq1/9v/XosHj53EBQKIhTuPlcXMhPgQAXsUVifMBIEp5s2n5IimGFWiJYYAQL5biDDmukuI0Od4ns4mPZUHcAoCSCocjzgBAtR3y9AJuBtRQ7YfYUcgTCAFQo0Psm5s7hQdxKsTW0EYEsVSfkfaDTsbfNNOGNTmcjGEsn4usKAUK8kQ5nBn/Zzr+d8nNkQz5sIRVJVMcGiudM8zb7ewp4VKsAnGfMC0yCmJNiD8IeDJ7iFFKpiQ0QW6PGnDzWDBncJ0B6sjjBIZDbABxsDAnMkLBp6ULgtkQwx2CThfks+Mh1oV4MT8vKE5hs1k8JVbhC61PF7OYCv4CRyzzK/X1UJKdwFTov87ksxX6mGphZnwSxBSIzQsEiZEQq0LskJcdF66wGVOYyYocshFLYqXxm0McyxeGBMj1sYJ0cXCswr4kN29ovtjmTAE7UoEP5GfGh8rzg7VwObL44Vywdr6QmTCkw88bFzE0Fx4/MEg+d6yHL0yIU+h8EOUHxMrH4hRRTrTCHjfl54RIeVOIXfMK4hRj8cR8uCHl+ni6KD86Xh4nXpjFCYuWx4OvABGABQIBHUhgTQNTQBYQtPU19ME7eU8w4AAxyAB8YK9ghkYkyXqE8BoHCsGfEPFB3vC4AFkvHxRA/uswK7/ag3RZb4FsRDZ4BnEuCAc58F4iGyUc9pYInkJG8A/vHFi5MN4cWKX9/54fYr8zTMhEKBjJkEe62pAlMYgYSAwlBhNtcH3cF/fGI+DVH1ZnnIF7Ds3juz3hGaGD8Jhwg9BJuDNZUCT+KcqxoBPqBytykfZjLnBLqOmGB+A+UB0q4zq4PrDHXaEfJu4HPbtBlqWIW5oV+k/af5vBD6uhsCM7klHyCLI/2frnkaq2qm7DKtJc/5gfeaxpw/lmDff87J/1Q/Z5sA3/2RJbjB3EzmOnsYvYMawB0LGTWCPWih2X4uHd9VS2u4a8xcriyYY6gn/4G1pZaSbzHGsdex2/yPvy+dOl72jAmiKaIRZkZObTmfCLwKezhVyHUXRnR2cXAKTfF/nr602M7LuB6LR+5xb8AYDPycHBwaPfubCTAOz3gI//ke+cNQN+OpQBuHCEKxEXyDlceiHAt4QafNL0gBEwA9ZwPs7AHXgDfxAEwkAUiAfJYBKMPhPuczGYBmaB+aAYlIIVYC2oAJvAVrAT7AEHQAM4Bk6Dc+AyaAc3wD24e7rAC9AP3oHPCIKQECpCQ/QQY8QCsUOcEQbiiwQhEUgskoykIhmIEJEgs5AFSCmyCqlAtiA1yH7kCHIauYh0IHeQR0gv8hr5hGKoCqqFGqKW6GiUgTLRcDQenYhmoFPRQnQhugwtR6vR3Wg9ehq9jN5AO9EX6AAGMGVMBzPB7DEGxsKisBQsHRNjc7ASrAyrxuqwJrjO17BOrA/7iBNxGk7H7eEODsUTcC4+FZ+DL8Ur8J14Pd6CX8Mf4f34NwKVYECwI3gR2IRxhAzCNEIxoYywnXCYcBY+S12Ed0QiUYdoRfSAz2IyMYs4k7iUuIG4l3iK2EF8QhwgkUh6JDuSDymKxCHlk4pJ60m7SSdJV0ldpA9KykrGSs5KwUopSkKlIqUypV1KJ5SuKnUrfSarky3IXuQoMo88g7ycvI3cRL5C7iJ/pmhQrCg+lHhKFmU+pZxSRzlLuU95o6ysbKrsqRyjLFCep1yuvE/5gvIj5Y8qmiq2KiyVCSoSlWUqO1ROqdxReUOlUi2p/tQUaj51GbWGeob6kPpBlabqoMpW5anOVa1UrVe9qvpSjaxmocZUm6RWqFamdlDtilqfOlndUp2lzlGfo16pfkT9lvqABk3DSSNKI1djqcYujYsaPZokTUvNIE2e5kLNrZpnNJ/QMJoZjUXj0hbQttHO0rq0iFpWWmytLK1SrT1abVr92prartqJ2tO1K7WPa3fqYDqWOmydHJ3lOgd0bup8GmE4gjmCP2LJiLoRV0e81x2p66/L1y3R3at7Q/eTHl0vSC9bb6Veg94DfVzfVj9Gf5r+Rv2z+n0jtUZ6j+SOLBl5YORdA9TA1iDWYKbBVoNWgwFDI8MQQ5HhesMzhn1GOkb+RllGa4xOGPUa04x9jQXGa4xPGj+na9OZ9Bx6Ob2F3m9iYBJqIjHZYtJm8tnUyjTBtMh0r+kDM4oZwyzdbI1Zs1m/ubH5WPNZ5rXmdy3IFgyLTIt1Fuct3ltaWSZZLrJssOyx0rViWxVa1Vrdt6Za+1lPta62vm5DtGHYZNtssGm3RW3dbDNtK22v2KF27nYCuw12HaMIozxHCUdVj7plr2LPtC+wr7V/5KDjEOFQ5NDg8HK0+eiU0StHnx/9zdHNMcdxm+M9J02nMKcipyan1862zlznSufrLlSXYJe5Lo0ur1ztXPmuG11vu9Hcxrotcmt2++ru4S52r3Pv9TD3SPWo8rjF0GJEM5YyLngSPAM853oe8/zo5e6V73XA6y9ve+9s713ePWOsxvDHbBvzxMfUh+OzxafTl+6b6rvZt9PPxI/jV+332N/Mn+e/3b+bacPMYu5mvgxwDBAHHA54z/JizWadCsQCQwJLAtuCNIMSgiqCHgabBmcE1wb3h7iFzAw5FUoIDQ9dGXqLbcjmsmvY/WEeYbPDWsJVwuPCK8IfR9hGiCOaxqJjw8auHns/0iJSGNkQBaLYUaujHkRbRU+NPhpDjImOqYx5FusUOyv2fBwtbnLcrrh38QHxy+PvJVgnSBKaE9USJyTWJL5PCkxaldQ5bvS42eMuJ+snC5IbU0gpiSnbUwbGB41fO75rgtuE4gk3J1pNnD7x4iT9STmTjk9Wm8yZfDCVkJqUuiv1CyeKU80ZSGOnVaX1c1ncddwXPH/eGl4v34e/it+d7pO+Kr0nwydjdUZvpl9mWWafgCWoELzKCs3alPU+Oyp7R/ZgTlLO3lyl3NTcI0JNYbawZYrRlOlTOkR2omJR51SvqWun9ovDxdvzkLyJeY35WvBHvlViLflF8qjAt6Cy4MO0xGkHp2tMF05vnWE7Y8mM7sLgwt9m4jO5M5tnmcyaP+vRbObsLXOQOWlzmueazV04t2teyLyd8ynzs+f/XuRYtKro7YKkBU0LDRfOW/jkl5BfaotVi8XFtxZ5L9q0GF8sWNy2xGXJ+iXfSngll0odS8tKvyzlLr30q9Ov5b8OLktf1rbcffnGFcQVwhU3V/qt3LlKY1Xhqierx66uX0NfU7Lm7drJay+WuZZtWkdZJ1nXWR5R3rjefP2K9V8qMituVAZU7q0yqFpS9X4Db8PVjf4b6zYZbird9GmzYPPtLSFb6qstq8u2ErcWbH22LXHb+d8Yv9Vs199euv3rDuGOzp2xO1tqPGpqdhnsWl6L1kpqe3dP2N2+J3BPY5193Za9OntL94F9kn3P96fuv3kg/EDzQcbBukMWh6oO0w6X1CP1M+r7GzIbOhuTGzuOhB1pbvJuOnzU4eiOYybHKo9rH19+gnJi4YnBk4UnB06JTvWdzjj9pHly870z485cb4lpaTsbfvbCueBzZ84zz5+84HPh2EWvi0cuMS41XHa/XN/q1nr4d7ffD7e5t9Vf8bjS2O7Z3tQxpuPEVb+rp68FXjt3nX398o3IGx03E27evjXhVudt3u2eOzl3Xt0tuPv53rz7hPslD9QflD00eFj9h80fezvdO48/CnzU+jju8b0n3CcvnuY9/dK18Bn1WVm3cXdNj3PPsd7g3vbn4593vRC9+NxX/KfGn1UvrV8e+sv/r9b+cf1dr8SvBl8vfaP3Zsdb17fNA9EDD9/lvvv8vuSD3oedHxkfz39K+tT9edoX0pfyrzZfm76Ff7s/mDs4KOKIObJfAQxWND0dgNc7AKAmA0CD5zPKePn5T1YQ+ZlVhsB/wvIzoqy4A1AH/99j+uDfzS0A9m2Dxy+orzYBgGgqAPGeAHVxGa5DZzXZuVJaiPAcsJn9NS03DfybIj9z/hD3zy2QqrqCn9t/AbrmfGqPnG8uAAAAimVYSWZNTQAqAAAACAAEARoABQAAAAEAAAA+ARsABQAAAAEAAABGASgAAwAAAAEAAgAAh2kABAAAAAEAAABOAAAAAAAAAJAAAAABAAAAkAAAAAEAA5KGAAcAAAASAAAAeKACAAQAAAABAAAA0KADAAQAAAABAAAAXgAAAABBU0NJSQAAAFNjcmVlbnNob3SNhg0vAAAACXBIWXMAABYlAAAWJQFJUiTwAAAB1WlUWHRYTUw6Y29tLmFkb2JlLnhtcAAAAAAAPHg6eG1wbWV0YSB4bWxuczp4PSJhZG9iZTpuczptZXRhLyIgeDp4bXB0az0iWE1QIENvcmUgNi4wLjAiPgogICA8cmRmOlJERiB4bWxuczpyZGY9Imh0dHA6Ly93d3cudzMub3JnLzE5OTkvMDIvMjItcmRmLXN5bnRheC1ucyMiPgogICAgICA8cmRmOkRlc2NyaXB0aW9uIHJkZjphYm91dD0iIgogICAgICAgICAgICB4bWxuczpleGlmPSJodHRwOi8vbnMuYWRvYmUuY29tL2V4aWYvMS4wLyI+CiAgICAgICAgIDxleGlmOlBpeGVsWURpbWVuc2lvbj45NDwvZXhpZjpQaXhlbFlEaW1lbnNpb24+CiAgICAgICAgIDxleGlmOlBpeGVsWERpbWVuc2lvbj4yMDg8L2V4aWY6UGl4ZWxYRGltZW5zaW9uPgogICAgICAgICA8ZXhpZjpVc2VyQ29tbWVudD5TY3JlZW5zaG90PC9leGlmOlVzZXJDb21tZW50PgogICAgICA8L3JkZjpEZXNjcmlwdGlvbj4KICAgPC9yZGY6UkRGPgo8L3g6eG1wbWV0YT4K1jRGXgAAABxpRE9UAAAAAgAAAAAAAAAvAAAAKAAAAC8AAAAvAAAM4MFK7ukAAAysSURBVHgB7F0HqBS9E4/1s/vZsYNib9g7YsPesIIdsXdFRVERLKjYe++iYq/YC9gromIXe++958tv//8JuXv73m12927vwQ48srebmUwmmd3MZCYvARfAfPAl4EvAlgQS+ApkS24+ki8BQwK+AvkTwZeAAwn4CuRAeD6qLwFfgfw54EvAgQR8BXIgPB/Vl4CvQP4c8CXgQAK+AjkQno/qS8BXIH8OmErg/fv3bMCAAez+/fvs6NGjpnV0bw4dOpRdunSJzZw5kxUuXFgXPTrrYx/IB18CqgSE0vD8+fNjg51XqVJFfeToetiwYQbN1KlT8wMHDjiiFS3I/hcoOt9rnnH16NEjVrVqVfbgwQOj3LNnD0uVKlWs/Dx79ow9ffqUvXr1ir1+/dr4+/r1K+vatSvLlClTAN7fv39Zq1at2ObNm1nSpEnZrl27WO3atQPqxLsf0aLJPh/eS+Dz58+8RIkSxldCLLG4WMbFyVT16tWNumLSxyjXr19vivv9+3dOeClTpuQXLlwwrRdfbrL4wqjPZ3gl8OfPH96kSRNDETCxb926FbLBbt268UKFCnHxpYmhQPfu3YsV/927dzxHjhwGToECBfiXL19irRvtD3wFivYRihB/s2bNkkowb948rVbF0oynSJFC4ufKlSsk/v79+3mCBAkMnN69e4esH60VfAWK1pGJIF/C3uHCzjEmc8mSJTkUQgdu3LghlQfLuQ4dOlhC79Spk8Tbu3evJZxoq+QrULSNiAf8tG7dWk5kO96xBQsWSHwo0LJlyyz14tq1a/IrlC1bNg77KL6Br0DxbcRc5vfx48c8ceLEhgKUKVPGFvU2bdoEKFBc9k9wA3Xq1JG4S5cuDX4c9b99BYr6IQovgyNHjnQ8gbNmzSppWLF/1B5h6UZevOLFi6uP4sW1r0A2hunhw4e8b9++PDZXrQ2SnqD8+PGDZ86c2ZjAsIHseMPs2j/UYdhbcJmTEh06dIgeWSonT57MR4wYwT9+/GipvtuVfAXSlOipU6d4+vTpjQHv2LGjJnZ0VV+9erWcuHBh2wG79o/a1vTp0yUfujItW7asgYvICThDIg2+AmlI/PDhw9JbhQETu+8a2NFXtW7dunLizp8/3xaDTuwfavDcuXOSjyxZsmh5Aa9cucL//fdfAz9nzpwcX8RIgq9AFqV95MgRnixZMmOgMmbMyO/cuWMR07walksvX77kz58/N68Q5rtYOqVLl05OXB3DX2XNif1DdLCU/OeffyQvFy9epEeWyp07d0pvHjZ1nY6NpUb/XykisXCIl7p+/boR2YtrMXhiyRseAG2xq84SJkzI0qRJw4R71Ii3ypAhg+0GxeRi5cqVY2/evGFCiZj4ErGKFSvGSm/u3LlGBLMIjWFCURhK9Q/3SAbly5dnp0+fjpVWuB6ISAMmogAM8mnTpmWIvtaFmzdvsoIFC0o0sf/DVq5cKX/rXECeJIeJEycyEXiqg86GDx/OgAcoUqSIQSuuGD4t4nFV1tE2nbovXrzgM2bM4JUqVZJvB8GHfMtE8looExfBjRzhKroA47Ro0aKS7+XLl4ck0bJlS1k/VD+FAoWkF44Kq1atkjxWqFDBVhNu2D/UcL9+/SQ/bdu2pduWy9+/f/Nq1apJGk2bNtVaClpuKKii60s4LA2wnhZvf9mZUJMoUs/hANAFig8Dj40aNbKEHh8UCOEzJPfOnTtb6ldwJTfsH6IpvlySH7v7USIqnMOGon6NGTOGyIetdFWB3r59a+SPUAeirRRLBC1Bqm9peN4wQFYAexsNGzbkIlSfZ8+eXQ6omTy8+gI1aNBA8jVu3Dgr3YpRxw37h4iKtAnJD16+dgGOnkSJEhm0sPKAgyKc4KoNVKNGDSaMbTFP/gdi0jERum7kfiRJkiSgFIGERiXkkaxdu5ZQZAlaYmNN/ja7EILCC4B9+PCBiQhfJoxHJrwyxr3g+mKwDRsMeShWADYB1vdiKWpUX7JkCevSpYsV1Bh1kAOzcePGGPdxwysbqHLlyuzkyZMGT7Nnz2Z9+vQx5S+2m27aP2hDrA6YWO7L5mAnigBV+VvnYvDgwWzatGkGCuQL2jTfdOhYquuWdh48eFC+QUTDxpdIJGeFJL9jx44APODiT/drQQ0hvir4rZ8nTx5t92avXr0kX4jT+vnzJzWhXS5atEjSov5R6dUXSN28XLFihXaf3LR/0DjGjWSCEja0XUB4knhhS3pWY/PstOfaEk68zYxEqXbt2vFNmzZxGHVWQLwtZEdJgPDrW8U3a6NevXoGTeScTJgwgSNRTAfOnz/P8fknfkDDCSBigWgFl14pkLr82rJli3b33LR/0DgmvSqbu3fvavOkImAeEj1EW4RKDlRxda5dUyCdRtW6MBipo1TCg+IE4DkT7nLbJNQNRuS5CPe1bVpA3LBhQ4w+Ul+9UiCKpgAfWAXogqqAuvFvZm2JdHApI+QJWbU3zWjhnji8RNJDH/v37x9bVUf3PVUgYbtIg48mFMo5c+Y46pQTZLG2D3C79+zZ0wk5AzcaFQiZpCRzYYNq9dFp/JtZY4gvJH5QOlUgtCHsaElT2L4cSuo2eKpAqudFFV6kwzFUoQpjWgodb0Irqc0qvtl1NCpQrVq1ZD/Fxq8Z27Hec9v+QUNXr16V/GAufPv2Ldb2rT7YvXt3AE3sS7oNnioQHXOkKg/sFq8AX0QcuUT8WN33CcVvNCoQgjapn+PHjw/VhYDnbts/II49OuIHIVNuAPYk1S9tsWLF3CAbQMNTBcIOOAmNSqT5egXiwL8AfpC37wZEowIhBYBkPmTIEK1uxmX/IBogX758WvRQWfXGwuvpFojwHtlP9PfMmTNukTboeKZA8IxRJiQNJMo1a9a42kEdYgg7Il6wZnZjGYH2o1GBsGyjvop9KstiwpKW8FCq5x9g2wL38NbXBeT1EF1kqboFJ06ckHRBHycJuQmeKZCZ/QPXMSKUvQB42mgHG4K2Gx9mxns0KtC2bdvkxMqdO7cZ26b34PKmiY5STcNGCBfu2fF4qQeMjB492rRtOzcR6U1R9OANUQ5O9vSCefBMgXr06BEwEOicOBEzmL+I/V63bl0APwMHDnSt7WhUIKQvQOb0ZzWtAnt8hINSDZXB+OHe8ePHtWUnot0lXRj/bgLxRXzb3aQ348kTBYJxh3UudYjKqVOnmvEYkXvt27cP4EeE3rjWrh0FQnblwoULjSUSYupKlSrFsWdWs2ZNjlN0Jk2aFDB57TBL2ZyQ//bt2y2RgHuZxgvlvn37DDyKRLFjqGM5r+YDue1uFqkOATxPmTLFUl+tVPJEgc6ePRvQIRoQp7vPVjpsVgcKTWcDEC9Pnjwxq2rrno4CYQmLr7O6nCSezMoWLVpwHAZvBzCRiCacClYBSkx4pUuX5jDUkZyHJTgUSReQEEf0kDriNgSbC0436lX+PFEg1QNEgrPz5lI74uQ6eDnjxs66yo9VBcIGskhuk5OJZANlwp4U/Q4uscZXbRG17biu8ZUjuvgaWYVPnz7x+vXrB4Q7QXmgSHZATa0IxyY6jhJWQ7OQteoWeKJAImMwxmQYNWqUW33SphO84YZ9DjfBigIhpUBVDLzZEQR5+fJl/uvXL+PUmUGDBgXUUevjVB07u/ciE1TS1M2XguNF/KcFjiRDu5vf6Bu5xbEHF67TdXBkliovu/wGz4uIK9Dt27cDOkKd8vKUfnUpA35EKHywnBz9DqVA6v5T8uTJOVy6sQXTNm7c2FR+4Ft1KVtlGLvzNAY67myr9EPVg61J7eOosHBBsI27detWV5qKuAIFT1YID4GNiIXCPoLuH/AQQeAERJ6PHETwA4+cmxCXAsGtSqH3OKwkVOiQ6n6miUcllmO6thtkR+kf2JeDPCMJ9K9OwLtbXwUz/uFVJTmhdCusJ+IKhKWJ2hE3rp3u2agbqODH7YPO41Igtf9YDoUCLHFUnODrY8eOhSIR47m6t6MblRCDmMYN8tyhD82bN9fA1K86duzYALmJf1+pT8QEI6IKFJw0FTz4dn/DNnAC9Aam9t3cJwBfVhQI+StWQd0YJJ6ptJMch3abNWtmTDA4MXS/Ylb5VuvhgBe45sF3JNpUIy/QJvrrBkRUgcyCR2ng7ZbIrLRjPKvCCz4ABSkNbkIoBYILGJ4iq0D/nMpMZnZ38ZHQRnJAPlS4QQ3dWbx4cbibM5blqrygvG5AxBQIb5zgNz06hP+GhjeQlT9VAFiv4zQZNzINVRcn2nA7nCiUAuke46RGGKsywXX37t1tzwv8Yy2iJ85JsE0nFCIyfmnj1Am/odpRn2PDl/qGMm/evOpj29f/AQAA//9OFiWiAAAI4UlEQVTtXWeoFDEQnmfvvWBDRcWKoogNRRQUO4Io+kNR7KAilj8WFGwgNrCCFVGxPBGxYkEsP0TF3nsDe29Y48zChs3u3W12X/bu3rsJHJfNTiaTL/dt2mQPRJLC0aNHBQAon+LFi4uPHz9qW/Dw4UMxefJksWLFCkFxE+Hbt2+KTWTjr1+/TKiWOnbs2OEpw4nFli1bpKxOpGHDhnH1jR49WkdFXJm5c+dauvPnzy/27NkTVy7sjadPn4qqVataZXTu3Fn8/v07rKpA+c6fP69gRjaYCGBCiY6OwYMHKxWgH9CYMWN0skYq8/LlS8UuIrXp4EegM2fOBCoySgKRIfSAysrKEoULFxYnTpwIZFsi4WfPnok6depYeLdu3Vp8+vQpkbjRew8ePFDauUyZMkb0J4VAHz58EMWKFVMqQAS6fv26kUrkRMn9+/cVu6pVq5YTdTHz+hGIbAgSoiYQ2UK9YoECBUSpUqWCmJZQtm/fvhbWPXv2FF++fEkoa/om/QadvX7JkiWNFJEUAi1dulQxnirSqVMnIxXIqZK7d+8qtlWvXj2nKj35/Qj04sULT55ECckgEJV/7tw5QbabCqdPnxY7d+4Uf//+NaVSWw9NFZwEqly5snbeRIKRE+jfv3+iXr16ivFUkSjG14kqGu/e8+fPFdtSMYRLVwLFwyw3pj958kRp53LlyhmpRuQEOnz4sGI4kad27dopeQrFQuz9+/ce+37+/BlLNHRabu2BQlc4DTNevnxZaeeaNWsasTJyAvXq1UsxnAi0ZMkSI8abUEJkcXbtFA/aI/jZwQTyQyj6+7QY4mznJk2aGCk0UgLRyke+fPkUw0uUKBFo6dpILX2U0GTZCe6NGzd8cgS7zQQKhlcU0jRlcLZxmzZtjBQTKYEmTJigGE0VGDdunBHDTSqpUaOGYidNdk0GJpBJNMPp2rBhg9LGXbp0CafIlSsyAtGyIfU2TtbT5hz1SukWOnbsqNi5d+9eoyYygYzCGUrZ4sWLlTYePnx4KD3uTJERaMGCBYrBRKQBAwa4y0+L62HDhim2bty40ahdTCCjcIZSNnPmTKWNFy1aFEqPO1MkBKKJeZUqVRSDiUCXLl1yl58W13PmzFFsNQWuXTkmkI1E6r7Jxck5Gjpw4IARY7QJ9PXrV7F27VoxZMgQQf5SicK6desUY8nwPn36JMqS0ntbt25V7KUeyWRgAplEM5yuFi1aKG386NGjcIpcubQItGbNGlGxYkVpAPlJxfPf+vPnj/R3shlP8hcvXnQVnT6Xbm8E2vg1GZhAJtEMrose/s6VVnIrow1+E8GXQO75gU2Kxo0bi8+fP3ts2Lx5sySaLUuOpOke3ENOcjI1FZhAppAMp8e9B9S+fftwimLkyqI0/KHHDLh7C82bN495jxKxW4T9+/cD/vgsGXRNByQW3Lt3T+YpX748XLt2TcrIG2kWGTRoEGzfvl1alZ2dDf369ZPXQSLY2wJuxsosp06dgoULF8prdwQfOoCuJTKZMKxVq5Z1jU9POHnypLxHkbFjxwJ6Nitp9gW1F87p7EsoWLAgdO3aVV5nYmT+/Pkwffp0WfV58+bBtGnT5HWOIjFIJZPevXsnKlSo4OlRsECZVrRoUTF+/HiBRBJTpkyR6SRD7vCHDh2S+tI5snr1asX2iRMnhja3f//+ii4nXjrx5cuXy7JpU1cnTzwZfIBJXZkacXvDmFzM8h3CuXdw4zWUO53GmUeOHMk1bXbz5k3lh9qyZcvQtjOBQkNnPCPNdeghYv8+aahuav5DxiYcwmGhVhgxYgSsX7/evvT9pmHEpk2boGnTpr6y6SSAxwTg9u3blkk46QR0gQf0zg5sIq5SWsMoyktDKPqgSxPgYor1sRUi/oCNaX1o+IsnYQG3AACXWAFPa1pib9++hWbNmgHON6FIkSJAdtHH1mfrom9bFy7kAH2+f/8Obdu2hePHjzvFMip+584daNCggawzzukBvRLkdY4jOpSnY884hvR4FmDhktkUp+Eeji+NH4nWsdGEDO3/OOtEx9A55G4EaAXZ2aYHDx40WiHfIZyztNevX4tJkyYJWoEjNx1aGqxfv76gk4bka/Tjxw+neK6Lv3nzRhQqVEgCPnTo0FxXBzZYRQBHQbI969ata3T4RiUFIpBqWt68Incj+4lFZDJ9tCFvopaetTp27JhsS2pTOhltOjCBXIi63x5EQ1cOuROBHj16SALRSeMgb4DSrbHWIgKyN2MCAgetWrWCCxcuWHWm/Rnac8FVxYzBIC9UlBaDGjVqRB2EVR3aO1u1apX5qukyLZPkzp49a73WCdG2nmArV67MpOrnibqOGjVK9j60V/n48eNI6sVDuDiwOl2YaPKZijfJxDGNk30QoMUgIo39AKSV4agCEygOsq9evRKlS5eWjbB79+44kpycbgjMmjVLthutEpt+SYyzvkwgJxqu+LJly2RD0A62SQdTV1F8aQiBW7duCdxwlu2Gm8iGNMdWwwSKjYuVSkcz6AWQ9lCA3uXMQ7kEgKX4FrUXvTLYbq+RI0dGbhETyAdiGk+jZ7RslBkzZvjk4NupQsD5GoF27dpFOnSz68jL2Pi48gtXrlwBbBDLt4z82dAdBLp16+aXje8nEQF8gSf07t3b8gHEtywB/hsD4Ot7I7eACaQJ8a5du2DgwIGWwyb6/AGd+aGG4pB6BOgB16FDB8AX1gO6mFnnp+isWlKC3RXxtz8C27Ztk0eD6bhDsv9hwN/CzJOgv0yhf9RAsoiyZcsK2sNLZuA5UEC09+3bJ1d58FRjwNwsbhoBOp5N5KlUqZKg918nO/AQLkQ/f/XqVZg9ezZ0794dcKUnhAbOYgqBqVOnAu7ZAS4gAPZEptRq62ECaUPFgoyAFwEmkBcTTmEEtBFgAmlDxYKMgBcBJpAXE05hBLQRYAJpQ8WCjIAXASaQFxNOYQS0EWACaUPFgoyAFwEmkBcTTmEEtBFgAmlDxYKMgBcBJpAXE05hBLQRYAJpQ8WCjIAXASaQFxNOYQS0EfgP5RmV0lmoJdAAAAAASUVORK5CYII=;" vertex="1" parent="WIyWlLk6GJQsqaUBKTNV-1">
          <mxGeometry x="110" y="270" width="88.51" height="40" as="geometry" />
        </mxCell>
        <mxCell id="y5GBzKAO8TMJgr05Nvq9-54" value="" style="shape=image;verticalLabelPosition=bottom;labelBackgroundColor=default;verticalAlign=top;aspect=fixed;imageAspect=0;image=data:image/png,iVBORw0KGgoAAAANSUhEUgAAAXoAAAB0CAYAAACL3flUAAAMP2lDQ1BJQ0MgUHJvZmlsZQAASImVVwdYU8kWnluSkEBoAQSkhN4E6QSQEkILIL0INkISIJQYA0HFji4quHYRARu6KqLYAbEjdhbB3hcLAsq6WLArb1JA133le/N9c+e//5z5z5kzc8sAoHaKIxLloOoA5ArzxbEhAfRxySl0UjdAARXoAH1gzeHmiZjR0REAlqH27+XdTYBI22v2Uq1/9v/XosHj53EBQKIhTuPlcXMhPgQAXsUVifMBIEp5s2n5IimGFWiJYYAQL5biDDmukuI0Od4ns4mPZUHcAoCSCocjzgBAtR3y9AJuBtRQ7YfYUcgTCAFQo0Psm5s7hQdxKsTW0EYEsVSfkfaDTsbfNNOGNTmcjGEsn4usKAUK8kQ5nBn/Zzr+d8nNkQz5sIRVJVMcGiudM8zb7ewp4VKsAnGfMC0yCmJNiD8IeDJ7iFFKpiQ0QW6PGnDzWDBncJ0B6sjjBIZDbABxsDAnMkLBp6ULgtkQwx2CThfks+Mh1oV4MT8vKE5hs1k8JVbhC61PF7OYCv4CRyzzK/X1UJKdwFTov87ksxX6mGphZnwSxBSIzQsEiZEQq0LskJcdF66wGVOYyYocshFLYqXxm0McyxeGBMj1sYJ0cXCswr4kN29ovtjmTAE7UoEP5GfGh8rzg7VwObL44Vywdr6QmTCkw88bFzE0Fx4/MEg+d6yHL0yIU+h8EOUHxMrH4hRRTrTCHjfl54RIeVOIXfMK4hRj8cR8uCHl+ni6KD86Xh4nXpjFCYuWx4OvABGABQIBHUhgTQNTQBYQtPU19ME7eU8w4AAxyAB8YK9ghkYkyXqE8BoHCsGfEPFB3vC4AFkvHxRA/uswK7/ag3RZb4FsRDZ4BnEuCAc58F4iGyUc9pYInkJG8A/vHFi5MN4cWKX9/54fYr8zTMhEKBjJkEe62pAlMYgYSAwlBhNtcH3cF/fGI+DVH1ZnnIF7Ds3juz3hGaGD8Jhwg9BJuDNZUCT+KcqxoBPqBytykfZjLnBLqOmGB+A+UB0q4zq4PrDHXaEfJu4HPbtBlqWIW5oV+k/af5vBD6uhsCM7klHyCLI/2frnkaq2qm7DKtJc/5gfeaxpw/lmDff87J/1Q/Z5sA3/2RJbjB3EzmOnsYvYMawB0LGTWCPWih2X4uHd9VS2u4a8xcriyYY6gn/4G1pZaSbzHGsdex2/yPvy+dOl72jAmiKaIRZkZObTmfCLwKezhVyHUXRnR2cXAKTfF/nr602M7LuB6LR+5xb8AYDPycHBwaPfubCTAOz3gI//ke+cNQN+OpQBuHCEKxEXyDlceiHAt4QafNL0gBEwA9ZwPs7AHXgDfxAEwkAUiAfJYBKMPhPuczGYBmaB+aAYlIIVYC2oAJvAVrAT7AEHQAM4Bk6Dc+AyaAc3wD24e7rAC9AP3oHPCIKQECpCQ/QQY8QCsUOcEQbiiwQhEUgskoykIhmIEJEgs5AFSCmyCqlAtiA1yH7kCHIauYh0IHeQR0gv8hr5hGKoCqqFGqKW6GiUgTLRcDQenYhmoFPRQnQhugwtR6vR3Wg9ehq9jN5AO9EX6AAGMGVMBzPB7DEGxsKisBQsHRNjc7ASrAyrxuqwJrjO17BOrA/7iBNxGk7H7eEODsUTcC4+FZ+DL8Ur8J14Pd6CX8Mf4f34NwKVYECwI3gR2IRxhAzCNEIxoYywnXCYcBY+S12Ed0QiUYdoRfSAz2IyMYs4k7iUuIG4l3iK2EF8QhwgkUh6JDuSDymKxCHlk4pJ60m7SSdJV0ldpA9KykrGSs5KwUopSkKlIqUypV1KJ5SuKnUrfSarky3IXuQoMo88g7ycvI3cRL5C7iJ/pmhQrCg+lHhKFmU+pZxSRzlLuU95o6ysbKrsqRyjLFCep1yuvE/5gvIj5Y8qmiq2KiyVCSoSlWUqO1ROqdxReUOlUi2p/tQUaj51GbWGeob6kPpBlabqoMpW5anOVa1UrVe9qvpSjaxmocZUm6RWqFamdlDtilqfOlndUp2lzlGfo16pfkT9lvqABk3DSSNKI1djqcYujYsaPZokTUvNIE2e5kLNrZpnNJ/QMJoZjUXj0hbQttHO0rq0iFpWWmytLK1SrT1abVr92prartqJ2tO1K7WPa3fqYDqWOmydHJ3lOgd0bup8GmE4gjmCP2LJiLoRV0e81x2p66/L1y3R3at7Q/eTHl0vSC9bb6Veg94DfVzfVj9Gf5r+Rv2z+n0jtUZ6j+SOLBl5YORdA9TA1iDWYKbBVoNWgwFDI8MQQ5HhesMzhn1GOkb+RllGa4xOGPUa04x9jQXGa4xPGj+na9OZ9Bx6Ob2F3m9iYBJqIjHZYtJm8tnUyjTBtMh0r+kDM4oZwyzdbI1Zs1m/ubH5WPNZ5rXmdy3IFgyLTIt1Fuct3ltaWSZZLrJssOyx0rViWxVa1Vrdt6Za+1lPta62vm5DtGHYZNtssGm3RW3dbDNtK22v2KF27nYCuw12HaMIozxHCUdVj7plr2LPtC+wr7V/5KDjEOFQ5NDg8HK0+eiU0StHnx/9zdHNMcdxm+M9J02nMKcipyan1862zlznSufrLlSXYJe5Lo0ur1ztXPmuG11vu9Hcxrotcmt2++ru4S52r3Pv9TD3SPWo8rjF0GJEM5YyLngSPAM853oe8/zo5e6V73XA6y9ve+9s713ePWOsxvDHbBvzxMfUh+OzxafTl+6b6rvZt9PPxI/jV+332N/Mn+e/3b+bacPMYu5mvgxwDBAHHA54z/JizWadCsQCQwJLAtuCNIMSgiqCHgabBmcE1wb3h7iFzAw5FUoIDQ9dGXqLbcjmsmvY/WEeYbPDWsJVwuPCK8IfR9hGiCOaxqJjw8auHns/0iJSGNkQBaLYUaujHkRbRU+NPhpDjImOqYx5FusUOyv2fBwtbnLcrrh38QHxy+PvJVgnSBKaE9USJyTWJL5PCkxaldQ5bvS42eMuJ+snC5IbU0gpiSnbUwbGB41fO75rgtuE4gk3J1pNnD7x4iT9STmTjk9Wm8yZfDCVkJqUuiv1CyeKU80ZSGOnVaX1c1ncddwXPH/eGl4v34e/it+d7pO+Kr0nwydjdUZvpl9mWWafgCWoELzKCs3alPU+Oyp7R/ZgTlLO3lyl3NTcI0JNYbawZYrRlOlTOkR2omJR51SvqWun9ovDxdvzkLyJeY35WvBHvlViLflF8qjAt6Cy4MO0xGkHp2tMF05vnWE7Y8mM7sLgwt9m4jO5M5tnmcyaP+vRbObsLXOQOWlzmueazV04t2teyLyd8ynzs+f/XuRYtKro7YKkBU0LDRfOW/jkl5BfaotVi8XFtxZ5L9q0GF8sWNy2xGXJ+iXfSngll0odS8tKvyzlLr30q9Ov5b8OLktf1rbcffnGFcQVwhU3V/qt3LlKY1Xhqierx66uX0NfU7Lm7drJay+WuZZtWkdZJ1nXWR5R3rjefP2K9V8qMituVAZU7q0yqFpS9X4Db8PVjf4b6zYZbird9GmzYPPtLSFb6qstq8u2ErcWbH22LXHb+d8Yv9Vs199euv3rDuGOzp2xO1tqPGpqdhnsWl6L1kpqe3dP2N2+J3BPY5193Za9OntL94F9kn3P96fuv3kg/EDzQcbBukMWh6oO0w6X1CP1M+r7GzIbOhuTGzuOhB1pbvJuOnzU4eiOYybHKo9rH19+gnJi4YnBk4UnB06JTvWdzjj9pHly870z485cb4lpaTsbfvbCueBzZ84zz5+84HPh2EWvi0cuMS41XHa/XN/q1nr4d7ffD7e5t9Vf8bjS2O7Z3tQxpuPEVb+rp68FXjt3nX398o3IGx03E27evjXhVudt3u2eOzl3Xt0tuPv53rz7hPslD9QflD00eFj9h80fezvdO48/CnzU+jju8b0n3CcvnuY9/dK18Bn1WVm3cXdNj3PPsd7g3vbn4593vRC9+NxX/KfGn1UvrV8e+sv/r9b+cf1dr8SvBl8vfaP3Zsdb17fNA9EDD9/lvvv8vuSD3oedHxkfz39K+tT9edoX0pfyrzZfm76Ff7s/mDs4KOKIObJfAQxWND0dgNc7AKAmA0CD5zPKePn5T1YQ+ZlVhsB/wvIzoqy4A1AH/99j+uDfzS0A9m2Dxy+orzYBgGgqAPGeAHVxGa5DZzXZuVJaiPAcsJn9NS03DfybIj9z/hD3zy2QqrqCn9t/AbrmfGqPnG8uAAAAimVYSWZNTQAqAAAACAAEARoABQAAAAEAAAA+ARsABQAAAAEAAABGASgAAwAAAAEAAgAAh2kABAAAAAEAAABOAAAAAAAAAJAAAAABAAAAkAAAAAEAA5KGAAcAAAASAAAAeKACAAQAAAABAAABeqADAAQAAAABAAAAdAAAAABBU0NJSQAAAFNjcmVlbnNob3T0gW00AAAACXBIWXMAABYlAAAWJQFJUiTwAAAB1mlUWHRYTUw6Y29tLmFkb2JlLnhtcAAAAAAAPHg6eG1wbWV0YSB4bWxuczp4PSJhZG9iZTpuczptZXRhLyIgeDp4bXB0az0iWE1QIENvcmUgNi4wLjAiPgogICA8cmRmOlJERiB4bWxuczpyZGY9Imh0dHA6Ly93d3cudzMub3JnLzE5OTkvMDIvMjItcmRmLXN5bnRheC1ucyMiPgogICAgICA8cmRmOkRlc2NyaXB0aW9uIHJkZjphYm91dD0iIgogICAgICAgICAgICB4bWxuczpleGlmPSJodHRwOi8vbnMuYWRvYmUuY29tL2V4aWYvMS4wLyI+CiAgICAgICAgIDxleGlmOlBpeGVsWURpbWVuc2lvbj4xMTY8L2V4aWY6UGl4ZWxZRGltZW5zaW9uPgogICAgICAgICA8ZXhpZjpQaXhlbFhEaW1lbnNpb24+Mzc4PC9leGlmOlBpeGVsWERpbWVuc2lvbj4KICAgICAgICAgPGV4aWY6VXNlckNvbW1lbnQ+U2NyZWVuc2hvdDwvZXhpZjpVc2VyQ29tbWVudD4KICAgICAgPC9yZGY6RGVzY3JpcHRpb24+CiAgIDwvcmRmOlJERj4KPC94OnhtcG1ldGE+CsQQzbgAAAAcaURPVAAAAAIAAAAAAAAAOgAAACgAAAA6AAAAOgAAD9BhFue7AAAPnElEQVR4AexdB4wWRRseinQUBCUUIZFQLEhEpQkxtEgTMaiQnIoXFVA4KQYMRg2JYITQEQSkCRohghUNeooaCygeF2KlaBCUZkNABAXHefb/Z5zd77tv2+y3d7vvm9zNlmn7zLzPtzvzzjuVuBBGQggQAoQAIZBYBCoR0Se2benBCAFCgBCwECCip45ACBAChEDCESCiT3gD0+MRAoQAIUBET32AECAECIGEI0BEn/AGpscjBAgBQoCInvoAIUAIEAIJR4CIPuENTI9HCBAChAARPfUBQoAQIAQSjgARfcIbmB6PECAECAEieuoDhAAhQAgkHAEi+oQ3MD0eIUAIEAJE9NQHCAFCgBBIOAJE9AlvYHo8QoAQIASI6KkPEAKEACGQcASI6BPewPR4hAAhQAgQ0VMfIAQIAUIg4QgQ0Se8genxCAFCgBBIFdEfPXqUjRs3ju3du5e99957Rlp/0qRJrLS0lM2bN49deumlRvKkTAgBQiA7AqTD2XFxvYodptIggtx569atsW0i79atm7FHfvDBB60869aty4uLi43lSxkRAoSAHQHSYTsefs5S8Ua/f/9+1r17d/b9999b4RtvvMHq1KlT5o/gwYMH2YEDB9hPP/3Efv75Z+vv5MmT7J577mEXXHCBLd0///zDbr31VrZhwwZWrVo1tnHjRtanTx9bHDohBAiBcAiQDofDj/n5VaiIcU+cOMHbt29vvXWLoRUuPv1yPkaPHj2suALWjHDt2rVZ0546dYrLdLVr1+YlJSVZ49FFQoAQ8I8A6bB/zJwpEk30Z8+e5TfeeKNF2CDgXbt2OZ8/43zEiBH8kksu4eLNPYPov/vuu4z48sJvv/3GmzVrZqVp06YN/+OPP+QtCgkBQiAgAqTDAYFzJEs00c+fP1+R9aJFixyPnvtUDMnwWrVqqfTNmzfPnUDcfeutt3ilSpWsNKNHj3aNTxEIAUIgNwKkw7nx8Xo3sUQvxuO5GIe3SPfKK6/kIG4/8s033yiSxzDOHXfc4Sn5nXfeqdJt2rTJUxqKRAgQApkIkA5nYhL0SmKJfujQoYpwg1jDLF68WKUH0a9YscITxl9++aV6q2/SpAnH+D0JIUAI+EeAdNg/ZmWlSCTR//DDD7xq1aoWUV999dVlPXvO68OGDbMRfa7xeWdG119/vUq7fPly5206JwQIARcESIddAPJ5O5FE//DDD4cm2saNG6s8vIzP67hjyEZa7VxxxRX6LTomBAgBDwiQDnsAyUeUxBH96dOn+YUXXmgRLcbog1i/BB2fl7hjPgCmnJLs33nnHXmLQkIgMgT27dvHi4qKeFlmwJEVbDjjJOjwjBkz+EMPPcSPHTtmGJ1g2SWO6NesWaMIFqaVQSTo+Lxe1pw5c1Q9hg8frt+iY0LAOAJbtmzh559/vtXnKnp/S4IOX3PNNVZbYDU+JpXjlsQRfd++fRXBPvXUU4HwDTM+Lwvctm2bqkejRo18W/3IfCgkBNwQ2Lx5s7IwA7GIFd1uScr1/STo8Oeff87r1atnccBFF13EMUoQpxglegyTHDlyhB86dCiWZ8KQSf369RXB+plA1SscZnxe5oPPz+rVq6u6bN++Xd6ikBAwhsC7777La9SoYfWzhg0b8j179oTKm3T4P/jC6vBrr72mLPCwADNs2/xXM/9Hnn3dLFy40PL4KJYjM9EZGEL9D9cE0YphacY6derEtm7dah3n859Y+crEqlSryPPOO4/B051f2blzJ2vbtq1KJuzn2TPPPKPO/Rx06dJF4fDEE08w4QDNT3KKGzEC8Gn09ddfW95McSz7bxTFIm+xypNVrlyZnXvuuUyY3lo+kRo0aBC4OPEiwzp27Mh++eUXJsieiTd7hj5XlpAOl4VM2dfD6vDkyZMZdB9y2WWXWXyQy89W2TUJecfrb8Mtt9yi3k5FkTmPBdF7zdZovNWrV6t6de7cOVDeJsbnZcH333+/qk9BQYG8TGGMCBw+fJjPnTuXd+3aVb1tufXnqO4L0ufCUR7HMn+/gkm+yy+/XPWvlStXumZBOuwKUUaEsDp85swZft1116l2Gjx4cCzDuJ6HbipCJ4HbAamUhYWFGY3m5YKJ8XlZjvgSUPUJas8v86IwHAIY1sOcjXibVm0i+0rcISZS/Yr04YS633DDDZ6Skw57gskWyYQOC0+4HPN0sp9NmTLFVkY+TjwTPWzDBw4cyIULXt60aVNVaVl5PYzrjX7AgAGqXlOnTg2En4nxeVmwcIes6gOCIYkHgV9//dXag0Dvo+XpWAxz+gJG/3KFpQ2IxIuQDntByR7HlA5jwrxKlSoWH+BLDsYa+RTPY/RCMWwCH+wvvPCC7Zo8iWuM/tprr2Uff/yxVY0FCxawMWPGyCp5Ck2Oz6NA8abGxBCBKhvzGMJRmjqng/wg0LNnTyYmLVVhghyZcCtt7R9wzjnn2ELhlM6Kh70InnvuOZVGHiAvsQhOnmYNhULjBYr9/vvvTHg1ZWISjgkrDOuaM4F4sbDmCLCXgRfBvBPmkMQQlBV92bJl7K677vKSNCMO6XAGJBkXTOrwAw88wGbPnm2VAY5E3rK/ZRRs+kLQX5WlS5eqt1VRJ9txXG/0+iKlVatW+X40k+PzKBx+b3RsMD5Mkl8E3n77bVsbYHcxsYmFayVeffVVWzrZjn7fvmVB6AvOL+GLL77Yt9ndfffdp+oFX0p//fWXLMJ3SDrsDplJHYZbB/FiodrPq/8s91q6x/A8dOPMCqvvZOd3hnERvT7s8uKLLzqr7HpucnwehaFhdWy+/fZb1zpQBLMIiC88a1OY2267ja9fv55jcsyLiLcvW9uhHWEX7TV9tjL69etn5Yl9Cx5//HGODTX8yGeffcbx2S/7FPIII6TD7uiZ1mH0Q9l+WMHvthGSew29xQhM9OvWrVMVlhWXYVxEL1cGoh54I/Mr+g+FX/822coS2xAqjOCn3utYara88n3tq6++4jfffDO/++67U+mBE5Pnsj/LEBYTYQSWMsKMM3AW+kIi7JUgzCoD54WEpMPu8JnW4dLSUlu/Gjt2rHslDMRIFNFjZyiplGJ81Rc8Yf3bZCsMvkdkfRBWJKLXnUp98MEH2R4vsdfE2LqaONPb78knn4ztmcX8kc0c9N577w1dl/JI9GnQYTHPo3hBzM1w/JhELYki+t69eysAxeIQX9iZHp9H4V988YWqDwjjzz//9FWnOCOPHDlS1f2ll16Ksyp5L1u3tNCJPs5l7MKwQLUHvg69bIvpBlx5JPo06PDrr7+u2hL9C+s6opZEET2cOUnFnDZtmi/sTI/Po3DYR8v6YJl6RRLsnSvrHmS+oyI9q7OuYgWzenaJAcbV4xJ8YdStW1fVyavdvFt9yyPRp0GHsaZD/3Jp166dW1OFvp8ooodbUKmYEydO9AVOrvF5rGxr1aqVr/wQWbfcgIVERZI0Ez1WVct+JENsERmXzJs3z1Yf7E1sQsoj0adFh4VbBFubfvLJJyaatMw8EkX0GK6RiilshMt8aOcNfAbLdAj1/WFhiodr+AX2K/BJLfPFrlMVSdJK9LCEkbuTybZD+Oyzz8bWfHDXIOuCMV1TQ4DlkejTosMfffSRalO0LfQtSkkU0b/88ssKvBYtWnjGDUMTUpEQ6tv/Ydk8rgWZHdc3Cn/00Uc916c8REwr0Wcbn4dJI7yyxiGwrJErKtEPg/pwylb38kj0adFheMaUXkfRrlg5H2ZNRLb21a8liujhlhigyT+v7pJhXy3TINSXJ3fv3t269+GHH+q4eToWngVVvpiAqUiSVqIfNWqUajPZJ9AH4pLnn3/eVp/x48cbq0p5JPo06bDkFtnPgi7G89Ih8kr02GllyZIl1tAIfOZ06NCBw165V69eHDu+T58+3UayXh7AGUfu7ALwXnnlFeftrOcwe5RgI3zzzTeteHJVZZDJEgwB6P7o82FClfXhAl5MI9FjkgxzKXpfwPGsWbMCohg+2e23326rj3A7Ej7T/+cQhOhJh43Bz4ULY1vbzpw501zmjpzyQvT47MWbkv4J6lQm/RwLdfbu3euoqrdTgCXzwsSOV8GPjUx31VVXcUyWYBMTfLaD8P0KNh2Q+cGdbEWTNBL9p59+qtpMth3CuFY044dH7n8s6/Pjjz8a60p+iJ502LwOO4cJwy7Iy9UxIid6LDIRm4BkKBBIH/bAsgM7Q4xf6WPluR5Cv4c3Dpkv3u69yvHjx3n//v1tS8xB8iD8IKK7TI5zoU2QuiNNGolet/iQ/THI11xQzJ3pnMMYJlZr62V4JXrSYcaj0GHh8M7GN9iFKiqJlOjhKlgqDEK8KcORz44dO/jff/9t7ZA+YcIEWxw9vtiJJdBqUrErjMoTtux+BJNfGzZs4NjIIegCGTybNNeE/XN52QneDw5pJHqxA5DqN7IfPvLII35gMxrXubAGaz1MiheiJx1m1hqGqHRYeEK19bmgnOPWLyIjet32t2bNmhymhmU5hBo0aJDtYaWSIdRNHd0eRt7HSjOZhx8zS5k+bIhxVFl+UVFR2OxiSZ82ot+9e7dqM9l2CEtKSmLBH4Xqw5Coi3Bxa7QubkRPOvw/w44oddg5BxPVKvRIiB6mQtIdJzYsdluurZtU6UqGYwzD+B2XxEpC6RIWNtHwOZNPEb7OLdJA3aP6hY76edJG9E5SRd+Dkzz0Hayl8PuHdOiHYUT4mbf9+MACx6TkInrS4fzoMKyodM6Lyh1CJESvVxzDIG6CzyI9jfP4/fffd8si475uG+93lWxGZj4uSEsdPMOQIUN8pCxfUdNG9BhWdPa7sOdhbd71hVKoC3aIMim5iF5/dtJhk6jb83rsscds/W7cuHH2CIbOIiV6+F72KvriAb2T4TjIJiIo96abbrJAxGSw368Cr/XW42GTZ5iMos75KlMv3+RxmojeubmEs/8FPcf8UxiRX6WyfNN21l6InnTYnJVTtr6grwRGO4OzopDIiB6miZhV9ipwGiU7tDMMuqoUmwbgExT5wZd31KK7PHj66aejLi7S/NNE9NmcmDn7oN9z7HYW1i217LuybLgqNiluRE86HL0OOxfE4UUxComM6AsKCnzVV/fmJju2DOEyN6gsWrRI/YCIfWSDZuOaDrv/yAVSYerrWlCeIqSF6PEV5nxzRr+rXbu29VWGLzO3P9lPEWJOqLCw0MjOQfpuUsjbtBsGN6InHY5e2bA4U+8/LVu2jKTQyIjerxOoqIgeqEkTMdjuRzGrjYk3uaISmwrAvLKiS1qIvri42KZoUDqQvJ8t3mDvjq0HYWuNYxMiNpLPqJdpXyhuRE86bKIlc+cBdys60Ufl5fZfAAAA///XEsVGAAALx0lEQVTtnWdoFM8bx5/YS+yaKBoLlthQFDXR2FGxYy8vFHtXfGFe2ECxRMSCSFTsWLArgiU2xIJgwa6x14jGrrFr3P886//2d3tJrmxmc3N334Hjdm93nnnmMzffnZ2dmQ3TRCALYefOndS/f/8sY549e5bi4uKyPO56oHbt2pScnOz6s74/evRoWrVqVabHvP0xMTGRJk6cSPny5aOkpCRq3bq1t1HdnpeSkqLbevjwIcXExNDRo0epaNGibuPYdfD58+d07tw5+vjxY7aT2LJlC3EZcmD+DRo0yJbNsLAwKlWqFHXu3JkKFiyYLVsyIw8ePJg2b95sMjlmzBhauXKl6bec3klNTaWyZcsayRYuXJi+fPli7MvYQB3+R9GfdfjRo0dUtWpVoziLFy9OHz58MPalbbDQWwk7duzgC0SWnwcPHvhktlatWlnaEkLjk62sThbipeXJk0cTQpzVKT7/3qNHD93vLl26aGlpaT7HlxlBXCyzZOiurHLyWHx8vMwsZ8uWqFBaoUKFMjC7efNmtuzKiMz1x7lcypcvL8OsyQbq8D8c/qzD/B90LuciRYqYykjWDlk15OlP8vLlS59M54TQs0MXLlzQ2HdZ4cyZM5poGWnp6emyTFq2Ex0dbfrTOP+BVNkeP3685fzJjrh06dIMvNq0aSM7GUv27t27Z/KtQoUKluy4i4Q6/I+OP+uwuPs2lXNkZKS7IrN8LIxjChHwOXi67RNCb7r19JSA3V03ntIPhuNXr16lI0eOSLnFX7BgAf3580fH0qdPH6pZs2a2EHHXTUREhN7dV6ZMmWzZkhGZ//biwkj37983mdu3bx+JFp7pN3/svHjxgoS4G0n7o+sGddjAb9vGs2fPqFKlSob9kiVL0rt374x9aRtWLxGB2hqwmt9Qizdq1CijpbF3796gy754TmPkT1QmfbtKlSpK3Jkx7Pfv32fw7+fPn1LLAXVYKk5LxkTjzFTOQvQt2fEUKeS6bjwBwfF/BIJd6Lt27WqqYCz2S5YsUab4WdQdFyDHt6/doZ4yA6H3RMj+4ydPnjSVc926dW1JFEJvC9bANxrMQi9GSGm5cuUyVbDw8HCN+0tVCjxwwCHy/H3r1i2p7kHopeK0ZEx0FZrKODY21pIdT5Eg9J4IhejxYBb6SZMmmSoXi+iECROUK+moqCiTn/zQUGaA0Mukac3W+vXrTWXcvn17a4Y8xILQewAUqoeDVeh5OBu33p1byrlz59a4la9aaNWqlcnP/fv3S3URQi8VpyVjixcvNpXx8OHDLdnxFAlC74lQiB4PVqFPSEgwVSwW/H79+ilZykOHDjX5umHDBql+Quil4rRkbObMmaYyXrRokSU7niJB6D0RCtHjwSj0/ICzXLlyporFQn/lyhUlS3nOnDkmX2WLAITe/8XOk0Gd7y4PHjxoi1MQeluwBr7RQBF6sSyAtmbNGk0sZaDNnTvXLfi1a9eaKhVXsO7du7uN48+DW7duNfnLLXyZAUIvk6Y1Ww0bNjSV8ePHj60Z8hALQu8BUKgeDgShF+sfaWLylVFRxKQsTazPk2mRiclfmlhTxDiXRZ7Pv3z5cqbnq/Cj6+zY6tWrS3ULQi8Vp8/GuJHiPLKKl+P4+/evz3a8iQCh94ZSCJ6jutC79l87bn/r1Kmjff78OUOJbdq0ySTyfP6gQYMynKfaD65dTa9evZLmIoReGkpLhlzH0Ddv3tySHW8ieb0Egmj5EE+JdoTTp0/TwoULHbsZvkXFIp7O6wiiAlLlypX1XV6F79SpU45D+vfYsWOJV1/MLPDKiaK/0jiUN29e6tChg7GPDfkEeMXK1atX64bFzFjq2bOn/EQsWuSlHtytpiluh+nAgQMkRFJP4ffv38T/P+flDnglzRs3bhjnWHTF9mgDBw6k7du3G+ns3r2bevfubez7soE67Ast+8+dP38+TZ8+3Uho3rx5NG3aNGNf6oY3VwM+p2/fvhlaRMIRr39bvny5kRRP/PAlruu5opIatrBhDwGVW/RiLRCtdOnSbv9DYilkTSxLrQnB16ZMmWI6N3/+/Nrhw4ftASfZqlgu2eT75MmTLaeAOmwZnS0RXWdn2zkowOuuG/xJbClrZY2qLPQMzXVGoWtjIKt97gcV7wxQlrurY7dv3zYJfaNGjVxP8XofddhrVLafyH3x3GB1/E+5i86u/nnOjNddN2JEg959wqvocdcJf8Q0cuJVCfnjCMImCYf1D98y//r1i8SwNhLDhqht27b6aW/fvqX69euT6EulAgUKkHggoX8c9hy2+Nthi1dS5M+3b9+oadOmdOLECefTsC2ZgMpdN46sjhgxgtatW+fY9fjN3T0bN26kevXqeTxXpRPEEt50584d3SWuK/xiGa6HvgbUYV+J2Xf+3bt3TSvCimdOJGbJ2peg7ZcuJBCQBFRv0TPUr1+/aqKPM8NMV1FbjJYSb3M3j+j/1ESjIyDLgsfPO+fp2LFjAZkPOP0fAR4x5lymhw4d+u+gDVtet+iFUwghRCAQWvSO4njz5g3x+vm8Fv/Tp0/px48f+uvZuCUsxskTP9DkO8dADXwHLN4wpd8dcx6GDBlCYpZsoGYHfgsC3KNx/fp1nUW1atVIDKU19YzIhgShl000SOwFktAHCXK32eD3M/PLfjjwe4/5gub8Tlm3kXFQKQLc7dyuXTvDJ/GmMxIP2Y19OzYg9HZQDQKbU6dO1VvJnBUeCtuyZcsgyFXgZuH48eMkVjY0MsDD8rjPHSHwCIj3S5PoqtEd52ct/DaxYsWK2ZoRCL2teAPX+Pnz50ks50uif1sfxy1eWhy4mQkCz0W3LTVp0oQuXbqk54bnqPC8EzGKKAhyFzpZ4Ifq/NpULk8OPH9oxYoVtgOA0NuOGAmAgBwCfPHlEWcOkUhMTKRx48bJMQ4rOULAuUtUzPWg5ORk0ztj7XICQm8XWdgFARsIDBs2zHgQyw/xeJgeD0tGUJ8AP1SvWLEiff/+XXfW1pmwLjgg9C5AsAsCKhN4/fo11ahRgz59+qS7uWfPHurVq5fKLsO3/xOYNWsWzZ49W9+Ljo7WR93wg/WcCBD6nKCMNEBAIoFly5YZozR4PR8xdZ4iIyMlpgBTsglw3zxP2OOhvxx45I1jAqnstDKzB6HPjAp+AwGFCaSnp+sjcMTqh7qXLBhiEhW6cBQtMy6vuLg44mcsHEaOHGksGJhTLkPoc4o00gEBiQS4v7dx48b05MkT3eqMGTNMK7xKTAqmskmAJ/PxcGUOzZo1I75A51SXjcN1CL2DBL5BIMAIXLt2TRcOXv+J15visdkdO3YMsFwEt7tJSUnUrVs3fZ2uqKgounjxol+62SD0wf0/Q+6CnMCuXbtowIAB+uJ/POeB15xnQUHwPwG+ELdo0YLS0tIoPDxcn3jI70rwR4DQ+4M60gQBiQS2bdtG4p25eqtRLGOsdw2wsCD4j0BKSgrFxsbqs15LlChB4v0HFBMT4zeHIPR+Q4+EQUAeAX6jllhvXh/VwW8p4jHaCP4jwC158f5iioiIIPH+A30RM/95QwSh9yd9pA0CEgnwaog8VrtTp076yA6JpmHKRwLx8fGUmppKCQkJ+sqjPkaXfjqEXjpSGAQBEAABtQhA6NUqD3gDAiAAAtIJQOilI4VBEAABEFCLAIRerfKANyAAAiAgnQCEXjpSGAQBEAABtQhA6NUqD3gDAiAAAtIJQOilI4VBEAABEFCLAIRerfKANyAAAiAgnQCEXjpSGAQBEAABtQhA6NUqD3gDAiAAAtIJQOilI4VBEAABEFCLAIRerfKANyAAAiAgnQCEXjpSGAQBEAABtQhA6NUqD3gDAiAAAtIJQOilI4VBEAABEFCLAIRerfKANyAAAiAgnQCEXjpSGAQBEAABtQhA6NUqD3gDAiAAAtIJQOilI4VBEAABEFCLAIRerfKANyAAAiAgnQCEXjpSGAQBEAABtQhA6NUqD3gDAiAAAtIJQOilI4VBEAABEFCLAIRerfKANyAAAiAgncD/ADJlh34etIUDAAAAAElFTkSuQmCC;" vertex="1" parent="WIyWlLk6GJQsqaUBKTNV-1">
          <mxGeometry x="121.07" y="475" width="162.93" height="50" as="geometry" />
        </mxCell>
      </root>
    </mxGraphModel>
  </diagram>
</mxfile>
